<?xml version="1.0" encoding="UTF-8"?>
<svg xmlns="http://www.w3.org/2000/svg" xmlns:xlink="http://www.w3.org/1999/xlink" viewBox="0 0 64 64" width="64px" height="64px">
<g id="surface7256795">
<rect x="0" y="0" width="64" height="64" style="fill:rgb(100%,100%,100%);fill-opacity:1;stroke:none;"/>
<path style=" stroke:none;fill-rule:nonzero;fill:rgb(100%,75.686276%,2.745098%);fill-opacity:1;" d="M 58.148438 26.777344 L 56 26.777344 L 56 26.667969 L 32 26.667969 L 32 37.332031 L 47.070312 37.332031 C 44.871094 43.542969 38.964844 48 32 48 C 23.164062 48 16 40.835938 16 32 C 16 23.164062 23.164062 16 32 16 C 36.078125 16 39.789062 17.539062 42.613281 20.050781 L 50.15625 12.507812 C 45.394531 8.070312 39.023438 5.332031 32 5.332031 C 17.273438 5.332031 5.332031 17.273438 5.332031 32 C 5.332031 46.726562 17.273438 58.667969 32 58.667969 C 46.726562 58.667969 58.667969 46.726562 58.667969 32 C 58.667969 30.210938 58.484375 28.464844 58.148438 26.777344 Z M 58.148438 26.777344 "/>
<path style=" stroke:none;fill-rule:nonzero;fill:rgb(100%,23.921569%,0%);fill-opacity:1;" d="M 8.40625 19.589844 L 17.167969 26.011719 C 19.539062 20.144531 25.28125 16 32 16 C 36.078125 16 39.789062 17.539062 42.613281 20.050781 L 50.15625 12.507812 C 45.394531 8.070312 39.023438 5.332031 32 5.332031 C 21.757812 5.332031 12.875 11.117188 8.40625 19.589844 Z M 8.40625 19.589844 "/>
<path style=" stroke:none;fill-rule:nonzero;fill:rgb(29.803923%,68.627453%,31.37255%);fill-opacity:1;" d="M 32 58.667969 C 38.886719 58.667969 45.148438 56.03125 49.878906 51.742188 L 41.625 44.761719 C 38.949219 46.789062 35.621094 48 32 48 C 25.0625 48 19.175781 43.578125 16.957031 37.40625 L 8.261719 44.105469 C 12.671875 52.742188 21.636719 58.667969 32 58.667969 Z M 32 58.667969 "/>
<path style=" stroke:none;fill-rule:nonzero;fill:rgb(9.803922%,46.27451%,82.352942%);fill-opacity:1;" d="M 58.148438 26.777344 L 56 26.777344 L 56 26.667969 L 32 26.667969 L 32 37.332031 L 47.070312 37.332031 C 46.015625 40.316406 44.097656 42.886719 41.621094 44.761719 C 41.621094 44.761719 41.625 44.761719 41.625 44.757812 L 49.878906 51.742188 C 49.292969 52.273438 58.667969 45.332031 58.667969 32 C 58.667969 30.210938 58.484375 28.464844 58.148438 26.777344 Z M 58.148438 26.777344 "/>
</g>
</svg>
